<svg id="hello-kitty-balloon" data-name="Layer 1" xmlns="http://www.w3.org/2000/svg" xmlns:xlink="http://www.w3.org/1999/xlink" width="839.2" height="727.08" viewBox="0 0 839.2 727.08">
  <title>Hello Kitty Balloon</title>
  <!-- Hello Kitty Head Shape -->
  <ellipse cx="419.6" cy="363.54" rx="180" ry="150" fill="#fff" stroke="#000" stroke-width="3"/>

  <!-- Left Ear -->
  <polygon points="300 200 340 100 380 200" fill="#fff" stroke="#000" stroke-width="3"/>
  
  <!-- Right Ear -->
  <polygon points="540 200 580 100 620 200" fill="#fff" stroke="#000" stroke-width="3"/>

  <!-- Left Eye -->
  <ellipse cx="360" cy="340" rx="15" ry="25" fill="#000"/>
  
  <!-- Right Eye -->
  <ellipse cx="480" cy="340" rx="15" ry="25" fill="#000"/>
  
  <!-- Nose -->
  <ellipse cx="420" cy="380" rx="12" ry="8" fill="#f5c24a"/>
  
  <!-- Whiskers -->
  <line x1="290" y1="360" x2="360" y2="360" stroke="#000" stroke-width="3"/>
  <line x1="290" y1="380" x2="360" y2="380" stroke="#000" stroke-width="3"/>
  <line x1="290" y1="400" x2="360" y2="400" stroke="#000" stroke-width="3"/>
  
  <line x1="480" y1="360" x2="550" y2="360" stroke="#000" stroke-width="3"/>
  <line x1="480" y1="380" x2="550" y2="380" stroke="#000" stroke-width="3"/>
  <line x1="480" y1="400" x2="550" y2="400" stroke="#000" stroke-width="3"/>

  <!-- Bow -->
  <circle cx="320" cy="260" r="25" fill="#f55f44" stroke="#000" stroke-width="3"/>
  <ellipse cx="300" cy="260" rx="20" ry="35" fill="#f55f44" stroke="#000" stroke-width="3"/>
  <ellipse cx="340" cy="260" rx="20" ry="35" fill="#f55f44" stroke="#000" stroke-width="3"/>

  <!-- Balloon String -->
  <line x1="420" y1="500" x2="420" y2="727.08" stroke="#535461" stroke-width="3" stroke-dasharray="5,5"/>

  <!-- Balloon Shadow -->
  <ellipse cx="420" cy="540" rx="180" ry="150" fill="#fff" opacity="0.2"/>
</svg>
